<?xml version="1.0" encoding="UTF-8"?>
<svg id="Layer_2" data-name="Layer 2" xmlns="http://www.w3.org/2000/svg" viewBox="0 0 88.22 51.18">
  <defs>
    <style>
      .cls-1 {
        fill: #000;
        stroke-width: 0px;
      }
    </style>
  </defs>
  <g id="Layer_1-2" data-name="Layer 1">
    <g>
      <path class="cls-1" d="M47.53,0c2.17.24,4.34.44,6.49.74,8.58,1.17,16.72,3.58,23.95,8.53,3.5,2.39,6.54,5.26,8.36,9.14.85,1.8,1.27,3.81,1.88,5.72v2.87c-.76,2.23-1.26,4.61-2.34,6.68-2.2,4.2-5.79,7.13-9.81,9.55-7.7,4.63-16.16,6.82-25.02,7.63-9.17.83-18.23.16-27.08-2.45-6.52-1.93-12.5-4.84-17.62-9.45C.85,33.99-1.4,26.75.89,20.39c1.64-4.55,4.8-7.92,8.65-10.69C15.91,5.12,23.13,2.62,30.78,1.27c2.97-.52,6.01-.72,9.01-1.07.35-.04.7-.13,1.04-.2,2.23,0,4.47,0,6.7,0ZM44.39.48c-3.8.28-6.99.34-10.13.77-6.21.86-12.28,2.33-17.95,5.15-4.29,2.13-8.31,4.61-11.44,8.34-2.4,2.85-4.03,6.01-4.29,9.77-.34,4.85,1.53,8.88,4.68,12.43,3.63,4.1,8.23,6.74,13.2,8.87,7.4,3.17,15.17,4.52,23.13,4.8,6.59.23,13.12-.42,19.56-2.02,5.55-1.38,10.84-3.35,15.6-6.48,4.85-3.19,8.91-7.1,10.39-13.04.68-2.71.63-5.4-.23-7.98-1.54-4.63-4.71-8.12-8.61-10.92-6.84-4.91-14.66-7.43-22.88-8.69-3.85-.59-7.76-.73-11.04-1.01Z"/>
      <path class="cls-1" d="M44.49,50.09c-6.76-.09-13.41-.9-19.85-2.84-6.71-2.02-13.02-4.95-17.87-10.2C1.72,31.59.08,25.14,3.81,18.14c1.88-3.53,4.76-6.3,8.15-8.35,3-1.81,6.18-3.42,9.45-4.69,5.79-2.24,11.86-3.3,18.07-3.68,5.26-.32,10.48-.1,15.67.71,7.02,1.09,13.71,3.21,19.8,6.97,3.84,2.37,7.21,5.24,9.31,9.32,2.71,5.27,2.53,10.43-.69,15.5-3.19,5.02-7.9,8.1-13.1,10.6-4.79,2.31-9.89,3.68-15.1,4.52-3.59.57-7.25.71-10.88,1.04ZM74,31.64c-.2-1.35-.35-2.64-.58-3.92-1.33-7.29-4.21-13.99-8.02-20.3-1.1-1.82-3.01-2.53-5.28-2.95,0,2.56-.02,4.91,0,7.27.01,1.24.27,2.41,1.07,3.44.27.36.48.89.45,1.33-.29,4.7-1.58,9.2-2.92,13.68-.31,1.04-.74,2.05-1.22,3.36-1.1-4.69-3.67-7.93-7.24-10.56-1.57-1.16-3.04-2.57-4.18-4.14-1.17-1.62-.98-2.88.94-3.96.14.93.25,1.83.43,2.71.16.81.34,1.62.63,2.39.12.31.5.66.82.73,1.27.28,4.3-1.7,4.57-2.99.46-2.25,1.05-4.5,1.19-6.77.13-2.11-.2-4.26-.43-6.38-.12-1.11-.88-1.64-2.02-1.55-.79.06-1.61.01-2.37.2-5.53,1.32-9.75,4.49-12.64,9.33-1.92,3.22-2.1,6.54-.05,9.88,1.48,2.42,3.49,4.28,5.68,6,1.83,1.45,3.72,2.84,4.87,4.95.38.71.51,1.43-.27,2.01-.73.55-1.32.21-1.91-.26-1.56-1.25-2.38-3-3.19-4.74-.44-.95-.78-1.94-1.17-2.92-1.18.44-2.21.83-3.24,1.22-.33-.72-.6-1.37-.93-2-.76-1.43-1.55-1.66-2.7-.55-1.16,1.11-2.16,2.4-3.17,3.65-.63.78-.49,1.47.55,1.9-1.47.86-2.85,1.67-4.39,2.57-.22-1.35-.48-2.5-.56-3.67-.02-.35.39-.88.74-1.07.93-.52,1.95-.85,2.89-1.35.28-.15.56-.6.55-.9-.08-2.21-.15-4.43-.39-6.63-.19-1.72-.54-1.88-2.19-1.13-1.12.5-2.15,1.18-3.29,1.81,0-1.25,0-2.39,0-3.54,0-1.69.32-2.07,1.96-2.39.04.83.09,1.67.14,2.61,2.33-.15,4.45-.42,5.54-2.71,1.66-3.5,2.61-7.22,3.22-11.02.15-.91-.17-1.33-1.11-1.04-1.99.63-4.05,1.13-5.95,1.97-2.26,1-4.4,2.29-6.59,3.45-.43-1.95-.95-2.19-2.79-1.38-2.52,1.1-4.42,3.13-6.83,4.46-2.17,1.2-3.93,3.22-5.65,5.07-1.12,1.2-1.8,2.79-1.8,4.53,0,.3.22.65.45.86.08.07.49-.21.74-.33-.88,6.48.92,10.26,2.44,13.52,1.53,3.27,8.8,8.25,10.95,8.32-.33-.61-.63-1.16-.93-1.7-2.24-4-4.54-7.98-5.63-12.48-.15-.6.02-1.41.33-1.96.87-1.51,1.91-2.92,2.87-4.37.58-.89,1.14-1.79,1.71-2.69.21,1.45.1,2.81.23,4.14.6,6.3,2.03,12.4,4.38,18.28,1.06,2.64,2.86,3.72,5.64,2.98,2.61-.69,5.16-1.63,7.8-2.47.34.9.73,2.11,1.23,3.26.65,1.49,1.43,1.61,2.44.39.9-1.08,2.27-2.01,1.29-3.82,2.82,3.86,6.31,6.9,11.66,4.06.2.26.39.53.62.84,2.62-1.58,5.21-3.12,7.77-4.71.77-.48,1.82-.95,2.1-1.67.75-1.95,1.16-4.02,1.71-6.05-.1-.03-.2-.05-.31-.08.53-.23,1.05-.46,1.74-.77-.17,1.06-.32,1.95-.45,2.85-.4,2.79.09,3.85,2.25,5.11.8.46,1.56.61,2.35.07,2.1-1.42,4.22-2.8,6.28-4.27,3.35-2.4,5.61-5.55,6.35-9.66.17-.93.22-1.89.18-2.82,0-.23-.58-.44-1.09-.79-.99-6.33-4.23-11.7-9.75-16.16-.1.75-.28,1.18-.19,1.54.19.8.47,1.58.77,2.35,2.17,5.5,3.42,11.12,2.18,17.06-.15.74-.33,1.37-1.29,1.45Z"/>
      <path class="cls-1" d="M12.98,18.23c.06,1.3-.66,2.73-2.07,4.2-.75-2.17-.09-3.56,2.07-4.2Z"/>
      <path class="cls-1" d="M67.08,28.44c-1,.31-2,.63-3,.94,2.27-1.21.96-3.62,1.89-5.34.19,1.43.36,2.79.57,4.14,0,.06.35.06.54.09,0,.06,0,.11,0,.17Z"/>
    </g>
  </g>
</svg>